<?xml version="1.0" encoding="UTF-8"?>
<!DOCTYPE svg PUBLIC  "-//W3C//DTD SVG 1.1//EN" "http://www.w3.org/Graphics/SVG/1.1/DTD/svg11-flat-20030114.dtd">
<svg xmlns="http://www.w3.org/2000/svg"
     xmlns:xlink="http://www.w3.org/1999/xlink"
     id="ExtrusionPentagon.Extrusion1.svg"
     width="900"
     height="750">
   <rect width="900" height="750" fill="cyan" stroke="black"/>
   <!--<x3d:Extrusion crossSection='
-3.5 -1 -2.1 2.9 2.2 2.9 3.6 -1 0 -3.5 -3.5 -1'/>
-->
   <!--
			Min xPos = -3.5
			Max xPos = 3.6			
			Min yPos = -3.5
			Max yPos = 3.6-->
   <g transform="translate(450 375) scale(100 -100)">
      <g style="fill:none;stroke:blue;stroke-width:0.04">
         <line id="line1" x1="-3.5" y1="-1" x2="-2.1" y2="2.9"/>
         <line id="line2" x1="-2.1" y1="2.9" x2="2.2" y2="2.9"/>
         <line id="line3" x1="2.2" y1="2.9" x2="3.6" y2="-1"/>
         <line id="line4" x1="3.6" y1="-1" x2="0" y2="-3.5"/>
         <line id="line5" x1="0" y1="-3.5" x2="-3.5" y2="-1"/>
      </g>
      <g style="fill:red;stroke:red;stroke-width:0.001">
         <circle id="marker1" cx="-3.5" cy="-1" r="0.05"/>
         <set
              xlink:href="#markerText1"
              attributeType="CSS"
              attributeName="visibility"
              to="visible"
              begin="marker1.mouseover"
              end="marker1.mouseout"/>
         <circle id="marker2" cx="-2.1" cy="2.9" r="0.05"/>
         <set
              xlink:href="#markerText2"
              attributeType="CSS"
              attributeName="visibility"
              to="visible"
              begin="marker2.mouseover"
              end="marker2.mouseout"/>
         <circle id="marker3" cx="2.2" cy="2.9" r="0.05"/>
         <set
              xlink:href="#markerText3"
              attributeType="CSS"
              attributeName="visibility"
              to="visible"
              begin="marker3.mouseover"
              end="marker3.mouseout"/>
         <circle id="marker4" cx="3.6" cy="-1" r="0.05"/>
         <set
              xlink:href="#markerText4"
              attributeType="CSS"
              attributeName="visibility"
              to="visible"
              begin="marker4.mouseover"
              end="marker4.mouseout"/>
         <circle id="marker5" cx="0" cy="-3.5" r="0.05"/>
         <set
              xlink:href="#markerText5"
              attributeType="CSS"
              attributeName="visibility"
              to="visible"
              begin="marker5.mouseover"
              end="marker5.mouseout"/>
         <circle id="marker6" cx="-3.5" cy="-1" r="0.05"/>
         <set
              xlink:href="#markerText6"
              attributeType="CSS"
              attributeName="visibility"
              to="visible"
              begin="marker6.mouseover"
              end="marker6.mouseout"/>
      </g>
   </g>
   <g id="markerTexts"
      transform="translate(450 375)"
      style="visibility:hidden;font-size:14;font-weight:bold; fill:green; stroke:none">
      <text id="markerText1" x="-345" y="95">(-3.5,-1)</text>
      <text id="markerText2" x="-205" y="-295">(-2.1,2.9)</text>
      <text id="markerText3" x="225.00000000000003" y="-295">(2.2,2.9)</text>
      <text id="markerText4" x="365" y="95">(3.6,-1)</text>
      <text id="markerText5" x="5" y="345">(0,-3.5)</text>
      <text id="markerText6" x="-345" y="95">(-3.5,-1)</text>
   </g>
   <g transform="translate(450 375) scale(100 -100)"
      style="fill:none;stroke:rgb(0,0,0);stroke-width:0.03">
      <line x1="0" y1="-3.8500000000000005" x2="0" y2="3.9600000000000004"/>
      <line x1="-3.8500000000000005" y1="0" x2="3.9600000000000004" y2="0"/>
      <g style="fill:none;stroke:rgb(0,0,0);stroke-width:0.03">
         <line
               x1="-3.8000000000000007"
               y1="-0.03"
               x2="-3.8000000000000007"
               y2="0.03"/>
         <line
               x1="-3.6000000000000005"
               y1="-0.03"
               x2="-3.6000000000000005"
               y2="0.03"/>
         <line
               x1="-3.4000000000000004"
               y1="-0.03"
               x2="-3.4000000000000004"
               y2="0.03"/>
         <line x1="-3.2" y1="-0.03" x2="-3.2" y2="0.03"/>
         <line x1="-3" y1="-0.03" x2="-3" y2="0.03"/>
         <line x1="-2.8" y1="-0.03" x2="-2.8" y2="0.03"/>
         <line
               x1="-2.5999999999999996"
               y1="-0.03"
               x2="-2.5999999999999996"
               y2="0.03"/>
         <line
               x1="-2.3999999999999995"
               y1="-0.03"
               x2="-2.3999999999999995"
               y2="0.03"/>
         <line
               x1="-2.1999999999999993"
               y1="-0.03"
               x2="-2.1999999999999993"
               y2="0.03"/>
         <line
               x1="-1.9999999999999993"
               y1="-0.03"
               x2="-1.9999999999999993"
               y2="0.03"/>
         <line
               x1="-1.7999999999999994"
               y1="-0.03"
               x2="-1.7999999999999994"
               y2="0.03"/>
         <line
               x1="-1.5999999999999994"
               y1="-0.03"
               x2="-1.5999999999999994"
               y2="0.03"/>
         <line
               x1="-1.3999999999999995"
               y1="-0.03"
               x2="-1.3999999999999995"
               y2="0.03"/>
         <line
               x1="-1.1999999999999995"
               y1="-0.03"
               x2="-1.1999999999999995"
               y2="0.03"/>
         <line
               x1="-0.9999999999999996"
               y1="-0.03"
               x2="-0.9999999999999996"
               y2="0.03"/>
         <line
               x1="-0.7999999999999996"
               y1="-0.03"
               x2="-0.7999999999999996"
               y2="0.03"/>
         <line
               x1="-0.5999999999999996"
               y1="-0.03"
               x2="-0.5999999999999996"
               y2="0.03"/>
         <line
               x1="-0.39999999999999963"
               y1="-0.03"
               x2="-0.39999999999999963"
               y2="0.03"/>
         <line
               x1="-0.19999999999999962"
               y1="-0.03"
               x2="-0.19999999999999962"
               y2="0.03"/>
         <line
               x1="3.885780586188048E-16"
               y1="-0.03"
               x2="3.885780586188048E-16"
               y2="0.03"/>
         <line
               x1="0.2000000000000004"
               y1="-0.03"
               x2="0.2000000000000004"
               y2="0.03"/>
         <line
               x1="0.4000000000000004"
               y1="-0.03"
               x2="0.4000000000000004"
               y2="0.03"/>
         <line
               x1="0.6000000000000004"
               y1="-0.03"
               x2="0.6000000000000004"
               y2="0.03"/>
         <line
               x1="0.8000000000000005"
               y1="-0.03"
               x2="0.8000000000000005"
               y2="0.03"/>
         <line
               x1="1.0000000000000004"
               y1="-0.03"
               x2="1.0000000000000004"
               y2="0.03"/>
         <line
               x1="1.2000000000000004"
               y1="-0.03"
               x2="1.2000000000000004"
               y2="0.03"/>
         <line
               x1="1.4000000000000004"
               y1="-0.03"
               x2="1.4000000000000004"
               y2="0.03"/>
         <line
               x1="1.6000000000000003"
               y1="-0.03"
               x2="1.6000000000000003"
               y2="0.03"/>
         <line
               x1="1.8000000000000003"
               y1="-0.03"
               x2="1.8000000000000003"
               y2="0.03"/>
         <line
               x1="2.0000000000000004"
               y1="-0.03"
               x2="2.0000000000000004"
               y2="0.03"/>
         <line
               x1="2.2000000000000006"
               y1="-0.03"
               x2="2.2000000000000006"
               y2="0.03"/>
         <line
               x1="2.400000000000001"
               y1="-0.03"
               x2="2.400000000000001"
               y2="0.03"/>
         <line
               x1="2.600000000000001"
               y1="-0.03"
               x2="2.600000000000001"
               y2="0.03"/>
         <line
               x1="2.800000000000001"
               y1="-0.03"
               x2="2.800000000000001"
               y2="0.03"/>
         <line
               x1="3.0000000000000013"
               y1="-0.03"
               x2="3.0000000000000013"
               y2="0.03"/>
         <line
               x1="3.2000000000000015"
               y1="-0.03"
               x2="3.2000000000000015"
               y2="0.03"/>
         <line
               x1="3.4000000000000017"
               y1="-0.03"
               x2="3.4000000000000017"
               y2="0.03"/>
         <line
               x1="3.600000000000002"
               y1="-0.03"
               x2="3.600000000000002"
               y2="0.03"/>
         <line
               y1="-3.8000000000000007"
               x1="-0.03"
               y2="-3.8000000000000007"
               x2="0.03"/>
         <line
               y1="-3.6000000000000005"
               x1="-0.03"
               y2="-3.6000000000000005"
               x2="0.03"/>
         <line
               y1="-3.4000000000000004"
               x1="-0.03"
               y2="-3.4000000000000004"
               x2="0.03"/>
         <line y1="-3.2" x1="-0.03" y2="-3.2" x2="0.03"/>
         <line y1="-3" x1="-0.03" y2="-3" x2="0.03"/>
         <line y1="-2.8" x1="-0.03" y2="-2.8" x2="0.03"/>
         <line
               y1="-2.5999999999999996"
               x1="-0.03"
               y2="-2.5999999999999996"
               x2="0.03"/>
         <line
               y1="-2.3999999999999995"
               x1="-0.03"
               y2="-2.3999999999999995"
               x2="0.03"/>
         <line
               y1="-2.1999999999999993"
               x1="-0.03"
               y2="-2.1999999999999993"
               x2="0.03"/>
         <line
               y1="-1.9999999999999993"
               x1="-0.03"
               y2="-1.9999999999999993"
               x2="0.03"/>
         <line
               y1="-1.7999999999999994"
               x1="-0.03"
               y2="-1.7999999999999994"
               x2="0.03"/>
         <line
               y1="-1.5999999999999994"
               x1="-0.03"
               y2="-1.5999999999999994"
               x2="0.03"/>
         <line
               y1="-1.3999999999999995"
               x1="-0.03"
               y2="-1.3999999999999995"
               x2="0.03"/>
         <line
               y1="-1.1999999999999995"
               x1="-0.03"
               y2="-1.1999999999999995"
               x2="0.03"/>
         <line
               y1="-0.9999999999999996"
               x1="-0.03"
               y2="-0.9999999999999996"
               x2="0.03"/>
         <line
               y1="-0.7999999999999996"
               x1="-0.03"
               y2="-0.7999999999999996"
               x2="0.03"/>
         <line
               y1="-0.5999999999999996"
               x1="-0.03"
               y2="-0.5999999999999996"
               x2="0.03"/>
         <line
               y1="-0.39999999999999963"
               x1="-0.03"
               y2="-0.39999999999999963"
               x2="0.03"/>
         <line
               y1="-0.19999999999999962"
               x1="-0.03"
               y2="-0.19999999999999962"
               x2="0.03"/>
         <line
               y1="3.885780586188048E-16"
               x1="-0.03"
               y2="3.885780586188048E-16"
               x2="0.03"/>
         <line
               y1="0.2000000000000004"
               x1="-0.03"
               y2="0.2000000000000004"
               x2="0.03"/>
         <line
               y1="0.4000000000000004"
               x1="-0.03"
               y2="0.4000000000000004"
               x2="0.03"/>
         <line
               y1="0.6000000000000004"
               x1="-0.03"
               y2="0.6000000000000004"
               x2="0.03"/>
         <line
               y1="0.8000000000000005"
               x1="-0.03"
               y2="0.8000000000000005"
               x2="0.03"/>
         <line
               y1="1.0000000000000004"
               x1="-0.03"
               y2="1.0000000000000004"
               x2="0.03"/>
         <line
               y1="1.2000000000000004"
               x1="-0.03"
               y2="1.2000000000000004"
               x2="0.03"/>
         <line
               y1="1.4000000000000004"
               x1="-0.03"
               y2="1.4000000000000004"
               x2="0.03"/>
         <line
               y1="1.6000000000000003"
               x1="-0.03"
               y2="1.6000000000000003"
               x2="0.03"/>
         <line
               y1="1.8000000000000003"
               x1="-0.03"
               y2="1.8000000000000003"
               x2="0.03"/>
         <line
               y1="2.0000000000000004"
               x1="-0.03"
               y2="2.0000000000000004"
               x2="0.03"/>
         <line
               y1="2.2000000000000006"
               x1="-0.03"
               y2="2.2000000000000006"
               x2="0.03"/>
         <line
               y1="2.400000000000001"
               x1="-0.03"
               y2="2.400000000000001"
               x2="0.03"/>
         <line
               y1="2.600000000000001"
               x1="-0.03"
               y2="2.600000000000001"
               x2="0.03"/>
         <line
               y1="2.800000000000001"
               x1="-0.03"
               y2="2.800000000000001"
               x2="0.03"/>
         <line
               y1="3.0000000000000013"
               x1="-0.03"
               y2="3.0000000000000013"
               x2="0.03"/>
         <line
               y1="3.2000000000000015"
               x1="-0.03"
               y2="3.2000000000000015"
               x2="0.03"/>
         <line
               y1="3.4000000000000017"
               x1="-0.03"
               y2="3.4000000000000017"
               x2="0.03"/>
         <line
               y1="3.600000000000002"
               x1="-0.03"
               y2="3.600000000000002"
               x2="0.03"/>
      </g>
   </g>
</svg>
