<?xml version="1.0" encoding="UTF-8"?>
<!DOCTYPE svg PUBLIC  "-//W3C//DTD SVG 1.1//EN" "http://www.w3.org/Graphics/SVG/1.1/DTD/svg11-flat-20030114.dtd">
<svg xmlns="http://www.w3.org/2000/svg"
     xmlns:xlink="http://www.w3.org/1999/xlink"
     id="ExtrusionRoomWalls.Extrusion1.svg"
     width="900"
     height="750">
   <rect width="900" height="750" fill="cyan" stroke="black"/>
   <!--<x3d:Extrusion crossSection='
0 0 0 6 3 6 3 5 1 5 1 1 9 1 9 5 5 5 5 6 10 6 10 0 0 0'/>
-->
   <!--
			Min xPos = 0
			Max xPos = 10			
			Min yPos = 0
			Max yPos = 10-->
   <g transform="translate(450 375) scale(100 -100)">
      <g style="fill:none;stroke:blue;stroke-width:0.04">
         <line id="line1" x1="0" y1="0" x2="0" y2="6"/>
         <line id="line2" x1="0" y1="6" x2="3" y2="6"/>
         <line id="line3" x1="3" y1="6" x2="3" y2="5"/>
         <line id="line4" x1="3" y1="5" x2="1" y2="5"/>
         <line id="line5" x1="1" y1="5" x2="1" y2="1"/>
         <line id="line6" x1="1" y1="1" x2="9" y2="1"/>
         <line id="line7" x1="9" y1="1" x2="9" y2="5"/>
         <line id="line8" x1="9" y1="5" x2="5" y2="5"/>
         <line id="line9" x1="5" y1="5" x2="5" y2="6"/>
         <line id="line10" x1="5" y1="6" x2="10" y2="6"/>
         <line id="line11" x1="10" y1="6" x2="10" y2="0"/>
         <line id="line12" x1="10" y1="0" x2="0" y2="0"/>
      </g>
      <g style="fill:red;stroke:red;stroke-width:0.001">
         <circle id="marker1" cx="0" cy="0" r="0.05"/>
         <set
              xlink:href="#markerText1"
              attributeType="CSS"
              attributeName="visibility"
              to="visible"
              begin="marker1.mouseover"
              end="marker1.mouseout"/>
         <circle id="marker2" cx="0" cy="6" r="0.05"/>
         <set
              xlink:href="#markerText2"
              attributeType="CSS"
              attributeName="visibility"
              to="visible"
              begin="marker2.mouseover"
              end="marker2.mouseout"/>
         <circle id="marker3" cx="3" cy="6" r="0.05"/>
         <set
              xlink:href="#markerText3"
              attributeType="CSS"
              attributeName="visibility"
              to="visible"
              begin="marker3.mouseover"
              end="marker3.mouseout"/>
         <circle id="marker4" cx="3" cy="5" r="0.05"/>
         <set
              xlink:href="#markerText4"
              attributeType="CSS"
              attributeName="visibility"
              to="visible"
              begin="marker4.mouseover"
              end="marker4.mouseout"/>
         <circle id="marker5" cx="1" cy="5" r="0.05"/>
         <set
              xlink:href="#markerText5"
              attributeType="CSS"
              attributeName="visibility"
              to="visible"
              begin="marker5.mouseover"
              end="marker5.mouseout"/>
         <circle id="marker6" cx="1" cy="1" r="0.05"/>
         <set
              xlink:href="#markerText6"
              attributeType="CSS"
              attributeName="visibility"
              to="visible"
              begin="marker6.mouseover"
              end="marker6.mouseout"/>
         <circle id="marker7" cx="9" cy="1" r="0.05"/>
         <set
              xlink:href="#markerText7"
              attributeType="CSS"
              attributeName="visibility"
              to="visible"
              begin="marker7.mouseover"
              end="marker7.mouseout"/>
         <circle id="marker8" cx="9" cy="5" r="0.05"/>
         <set
              xlink:href="#markerText8"
              attributeType="CSS"
              attributeName="visibility"
              to="visible"
              begin="marker8.mouseover"
              end="marker8.mouseout"/>
         <circle id="marker9" cx="5" cy="5" r="0.05"/>
         <set
              xlink:href="#markerText9"
              attributeType="CSS"
              attributeName="visibility"
              to="visible"
              begin="marker9.mouseover"
              end="marker9.mouseout"/>
         <circle id="marker10" cx="5" cy="6" r="0.05"/>
         <set
              xlink:href="#markerText10"
              attributeType="CSS"
              attributeName="visibility"
              to="visible"
              begin="marker10.mouseover"
              end="marker10.mouseout"/>
         <circle id="marker11" cx="10" cy="6" r="0.05"/>
         <set
              xlink:href="#markerText11"
              attributeType="CSS"
              attributeName="visibility"
              to="visible"
              begin="marker11.mouseover"
              end="marker11.mouseout"/>
         <circle id="marker12" cx="10" cy="0" r="0.05"/>
         <set
              xlink:href="#markerText12"
              attributeType="CSS"
              attributeName="visibility"
              to="visible"
              begin="marker12.mouseover"
              end="marker12.mouseout"/>
         <circle id="marker13" cx="0" cy="0" r="0.05"/>
         <set
              xlink:href="#markerText13"
              attributeType="CSS"
              attributeName="visibility"
              to="visible"
              begin="marker13.mouseover"
              end="marker13.mouseout"/>
      </g>
   </g>
   <g id="markerTexts"
      transform="translate(450 375)"
      style="visibility:hidden;font-size:14;font-weight:bold; fill:green; stroke:none">
      <text id="markerText1" x="5" y="-5">(0,0)</text>
      <text id="markerText2" x="5" y="-605">(0,6)</text>
      <text id="markerText3" x="305" y="-605">(3,6)</text>
      <text id="markerText4" x="305" y="-505">(3,5)</text>
      <text id="markerText5" x="105" y="-505">(1,5)</text>
      <text id="markerText6" x="105" y="-105">(1,1)</text>
      <text id="markerText7" x="905" y="-105">(9,1)</text>
      <text id="markerText8" x="905" y="-505">(9,5)</text>
      <text id="markerText9" x="505" y="-505">(5,5)</text>
      <text id="markerText10" x="505" y="-605">(5,6)</text>
      <text id="markerText11" x="1005" y="-605">(10,6)</text>
      <text id="markerText12" x="1005" y="-5">(10,0)</text>
      <text id="markerText13" x="5" y="-5">(0,0)</text>
   </g>
   <g transform="translate(450 375) scale(100 -100)"
      style="fill:none;stroke:rgb(0,0,0);stroke-width:0.03">
      <line x1="0" y1="0" x2="0" y2="11"/>
      <line x1="0" y1="0" x2="11" y2="0"/>
      <g style="fill:none;stroke:rgb(0,0,0);stroke-width:0.03">
         <line x1="0.2" y1="-0.03" x2="0.2" y2="0.03"/>
         <line x1="0.4" y1="-0.03" x2="0.4" y2="0.03"/>
         <line
               x1="0.6000000000000001"
               y1="-0.03"
               x2="0.6000000000000001"
               y2="0.03"/>
         <line x1="0.8" y1="-0.03" x2="0.8" y2="0.03"/>
         <line x1="1" y1="-0.03" x2="1" y2="0.03"/>
         <line x1="1.2" y1="-0.03" x2="1.2" y2="0.03"/>
         <line x1="1.4" y1="-0.03" x2="1.4" y2="0.03"/>
         <line
               x1="1.5999999999999999"
               y1="-0.03"
               x2="1.5999999999999999"
               y2="0.03"/>
         <line
               x1="1.7999999999999998"
               y1="-0.03"
               x2="1.7999999999999998"
               y2="0.03"/>
         <line
               x1="1.9999999999999998"
               y1="-0.03"
               x2="1.9999999999999998"
               y2="0.03"/>
         <line
               x1="2.1999999999999997"
               y1="-0.03"
               x2="2.1999999999999997"
               y2="0.03"/>
         <line x1="2.4" y1="-0.03" x2="2.4" y2="0.03"/>
         <line x1="2.6" y1="-0.03" x2="2.6" y2="0.03"/>
         <line
               x1="2.8000000000000003"
               y1="-0.03"
               x2="2.8000000000000003"
               y2="0.03"/>
         <line
               x1="3.0000000000000004"
               y1="-0.03"
               x2="3.0000000000000004"
               y2="0.03"/>
         <line
               x1="3.2000000000000006"
               y1="-0.03"
               x2="3.2000000000000006"
               y2="0.03"/>
         <line
               x1="3.400000000000001"
               y1="-0.03"
               x2="3.400000000000001"
               y2="0.03"/>
         <line
               x1="3.600000000000001"
               y1="-0.03"
               x2="3.600000000000001"
               y2="0.03"/>
         <line
               x1="3.800000000000001"
               y1="-0.03"
               x2="3.800000000000001"
               y2="0.03"/>
         <line
               x1="4.000000000000001"
               y1="-0.03"
               x2="4.000000000000001"
               y2="0.03"/>
         <line
               x1="4.200000000000001"
               y1="-0.03"
               x2="4.200000000000001"
               y2="0.03"/>
         <line
               x1="4.400000000000001"
               y1="-0.03"
               x2="4.400000000000001"
               y2="0.03"/>
         <line
               x1="4.600000000000001"
               y1="-0.03"
               x2="4.600000000000001"
               y2="0.03"/>
         <line
               x1="4.800000000000002"
               y1="-0.03"
               x2="4.800000000000002"
               y2="0.03"/>
         <line
               x1="5.000000000000002"
               y1="-0.03"
               x2="5.000000000000002"
               y2="0.03"/>
         <line
               x1="5.200000000000002"
               y1="-0.03"
               x2="5.200000000000002"
               y2="0.03"/>
         <line
               x1="5.400000000000002"
               y1="-0.03"
               x2="5.400000000000002"
               y2="0.03"/>
         <line
               x1="5.600000000000002"
               y1="-0.03"
               x2="5.600000000000002"
               y2="0.03"/>
         <line
               x1="5.8000000000000025"
               y1="-0.03"
               x2="5.8000000000000025"
               y2="0.03"/>
         <line
               x1="6.000000000000003"
               y1="-0.03"
               x2="6.000000000000003"
               y2="0.03"/>
         <line
               x1="6.200000000000003"
               y1="-0.03"
               x2="6.200000000000003"
               y2="0.03"/>
         <line
               x1="6.400000000000003"
               y1="-0.03"
               x2="6.400000000000003"
               y2="0.03"/>
         <line
               x1="6.600000000000003"
               y1="-0.03"
               x2="6.600000000000003"
               y2="0.03"/>
         <line
               x1="6.800000000000003"
               y1="-0.03"
               x2="6.800000000000003"
               y2="0.03"/>
         <line
               x1="7.0000000000000036"
               y1="-0.03"
               x2="7.0000000000000036"
               y2="0.03"/>
         <line
               x1="7.200000000000004"
               y1="-0.03"
               x2="7.200000000000004"
               y2="0.03"/>
         <line
               x1="7.400000000000004"
               y1="-0.03"
               x2="7.400000000000004"
               y2="0.03"/>
         <line
               x1="7.600000000000004"
               y1="-0.03"
               x2="7.600000000000004"
               y2="0.03"/>
         <line
               x1="7.800000000000004"
               y1="-0.03"
               x2="7.800000000000004"
               y2="0.03"/>
         <line
               x1="8.000000000000004"
               y1="-0.03"
               x2="8.000000000000004"
               y2="0.03"/>
         <line
               x1="8.200000000000003"
               y1="-0.03"
               x2="8.200000000000003"
               y2="0.03"/>
         <line
               x1="8.400000000000002"
               y1="-0.03"
               x2="8.400000000000002"
               y2="0.03"/>
         <line
               x1="8.600000000000001"
               y1="-0.03"
               x2="8.600000000000001"
               y2="0.03"/>
         <line x1="8.8" y1="-0.03" x2="8.8" y2="0.03"/>
         <line x1="9" y1="-0.03" x2="9" y2="0.03"/>
         <line x1="9.2" y1="-0.03" x2="9.2" y2="0.03"/>
         <line
               x1="9.399999999999999"
               y1="-0.03"
               x2="9.399999999999999"
               y2="0.03"/>
         <line
               x1="9.599999999999998"
               y1="-0.03"
               x2="9.599999999999998"
               y2="0.03"/>
         <line
               x1="9.799999999999997"
               y1="-0.03"
               x2="9.799999999999997"
               y2="0.03"/>
         <line
               x1="9.999999999999996"
               y1="-0.03"
               x2="9.999999999999996"
               y2="0.03"/>
         <line
               x1="10.199999999999996"
               y1="-0.03"
               x2="10.199999999999996"
               y2="0.03"/>
         <line
               x1="10.399999999999995"
               y1="-0.03"
               x2="10.399999999999995"
               y2="0.03"/>
         <line
               x1="10.599999999999994"
               y1="-0.03"
               x2="10.599999999999994"
               y2="0.03"/>
         <line
               x1="10.799999999999994"
               y1="-0.03"
               x2="10.799999999999994"
               y2="0.03"/>
         <line
               x1="10.999999999999993"
               y1="-0.03"
               x2="10.999999999999993"
               y2="0.03"/>
         <line y1="0.2" x1="-0.03" y2="0.2" x2="0.03"/>
         <line y1="0.4" x1="-0.03" y2="0.4" x2="0.03"/>
         <line
               y1="0.6000000000000001"
               x1="-0.03"
               y2="0.6000000000000001"
               x2="0.03"/>
         <line y1="0.8" x1="-0.03" y2="0.8" x2="0.03"/>
         <line y1="1" x1="-0.03" y2="1" x2="0.03"/>
         <line y1="1.2" x1="-0.03" y2="1.2" x2="0.03"/>
         <line y1="1.4" x1="-0.03" y2="1.4" x2="0.03"/>
         <line
               y1="1.5999999999999999"
               x1="-0.03"
               y2="1.5999999999999999"
               x2="0.03"/>
         <line
               y1="1.7999999999999998"
               x1="-0.03"
               y2="1.7999999999999998"
               x2="0.03"/>
         <line
               y1="1.9999999999999998"
               x1="-0.03"
               y2="1.9999999999999998"
               x2="0.03"/>
         <line
               y1="2.1999999999999997"
               x1="-0.03"
               y2="2.1999999999999997"
               x2="0.03"/>
         <line y1="2.4" x1="-0.03" y2="2.4" x2="0.03"/>
         <line y1="2.6" x1="-0.03" y2="2.6" x2="0.03"/>
         <line
               y1="2.8000000000000003"
               x1="-0.03"
               y2="2.8000000000000003"
               x2="0.03"/>
         <line
               y1="3.0000000000000004"
               x1="-0.03"
               y2="3.0000000000000004"
               x2="0.03"/>
         <line
               y1="3.2000000000000006"
               x1="-0.03"
               y2="3.2000000000000006"
               x2="0.03"/>
         <line
               y1="3.400000000000001"
               x1="-0.03"
               y2="3.400000000000001"
               x2="0.03"/>
         <line
               y1="3.600000000000001"
               x1="-0.03"
               y2="3.600000000000001"
               x2="0.03"/>
         <line
               y1="3.800000000000001"
               x1="-0.03"
               y2="3.800000000000001"
               x2="0.03"/>
         <line
               y1="4.000000000000001"
               x1="-0.03"
               y2="4.000000000000001"
               x2="0.03"/>
         <line
               y1="4.200000000000001"
               x1="-0.03"
               y2="4.200000000000001"
               x2="0.03"/>
         <line
               y1="4.400000000000001"
               x1="-0.03"
               y2="4.400000000000001"
               x2="0.03"/>
         <line
               y1="4.600000000000001"
               x1="-0.03"
               y2="4.600000000000001"
               x2="0.03"/>
         <line
               y1="4.800000000000002"
               x1="-0.03"
               y2="4.800000000000002"
               x2="0.03"/>
         <line
               y1="5.000000000000002"
               x1="-0.03"
               y2="5.000000000000002"
               x2="0.03"/>
         <line
               y1="5.200000000000002"
               x1="-0.03"
               y2="5.200000000000002"
               x2="0.03"/>
         <line
               y1="5.400000000000002"
               x1="-0.03"
               y2="5.400000000000002"
               x2="0.03"/>
         <line
               y1="5.600000000000002"
               x1="-0.03"
               y2="5.600000000000002"
               x2="0.03"/>
         <line
               y1="5.8000000000000025"
               x1="-0.03"
               y2="5.8000000000000025"
               x2="0.03"/>
         <line
               y1="6.000000000000003"
               x1="-0.03"
               y2="6.000000000000003"
               x2="0.03"/>
         <line
               y1="6.200000000000003"
               x1="-0.03"
               y2="6.200000000000003"
               x2="0.03"/>
         <line
               y1="6.400000000000003"
               x1="-0.03"
               y2="6.400000000000003"
               x2="0.03"/>
         <line
               y1="6.600000000000003"
               x1="-0.03"
               y2="6.600000000000003"
               x2="0.03"/>
         <line
               y1="6.800000000000003"
               x1="-0.03"
               y2="6.800000000000003"
               x2="0.03"/>
         <line
               y1="7.0000000000000036"
               x1="-0.03"
               y2="7.0000000000000036"
               x2="0.03"/>
         <line
               y1="7.200000000000004"
               x1="-0.03"
               y2="7.200000000000004"
               x2="0.03"/>
         <line
               y1="7.400000000000004"
               x1="-0.03"
               y2="7.400000000000004"
               x2="0.03"/>
         <line
               y1="7.600000000000004"
               x1="-0.03"
               y2="7.600000000000004"
               x2="0.03"/>
         <line
               y1="7.800000000000004"
               x1="-0.03"
               y2="7.800000000000004"
               x2="0.03"/>
         <line
               y1="8.000000000000004"
               x1="-0.03"
               y2="8.000000000000004"
               x2="0.03"/>
         <line
               y1="8.200000000000003"
               x1="-0.03"
               y2="8.200000000000003"
               x2="0.03"/>
         <line
               y1="8.400000000000002"
               x1="-0.03"
               y2="8.400000000000002"
               x2="0.03"/>
         <line
               y1="8.600000000000001"
               x1="-0.03"
               y2="8.600000000000001"
               x2="0.03"/>
         <line y1="8.8" x1="-0.03" y2="8.8" x2="0.03"/>
         <line y1="9" x1="-0.03" y2="9" x2="0.03"/>
         <line y1="9.2" x1="-0.03" y2="9.2" x2="0.03"/>
         <line
               y1="9.399999999999999"
               x1="-0.03"
               y2="9.399999999999999"
               x2="0.03"/>
         <line
               y1="9.599999999999998"
               x1="-0.03"
               y2="9.599999999999998"
               x2="0.03"/>
         <line
               y1="9.799999999999997"
               x1="-0.03"
               y2="9.799999999999997"
               x2="0.03"/>
         <line
               y1="9.999999999999996"
               x1="-0.03"
               y2="9.999999999999996"
               x2="0.03"/>
         <line
               y1="10.199999999999996"
               x1="-0.03"
               y2="10.199999999999996"
               x2="0.03"/>
         <line
               y1="10.399999999999995"
               x1="-0.03"
               y2="10.399999999999995"
               x2="0.03"/>
         <line
               y1="10.599999999999994"
               x1="-0.03"
               y2="10.599999999999994"
               x2="0.03"/>
         <line
               y1="10.799999999999994"
               x1="-0.03"
               y2="10.799999999999994"
               x2="0.03"/>
         <line
               y1="10.999999999999993"
               x1="-0.03"
               y2="10.999999999999993"
               x2="0.03"/>
      </g>
   </g>
</svg>
