<?xml version="1.0" encoding="UTF-8"?>
<!DOCTYPE svg PUBLIC  "-//W3C//DTD SVG 1.1//EN" "http://www.w3.org/Graphics/SVG/1.1/DTD/svg11-flat-20030114.dtd">
<svg xmlns="http://www.w3.org/2000/svg"
     xmlns:xlink="http://www.w3.org/1999/xlink"
     id="Sardine.Extrusion1.svg"
     width="900"
     height="750">
   <rect width="900" height="750" fill="cyan" stroke="black"/>
   <!--<x3d:Extrusion crossSection='
0 .9 .25 0 1.3 .5 0 1.6 .6 0 1.3 .7 0 1.1 .8 0 1 .9 0 .95 1 0 .7 1'/>
-->
   <!--
			Min xPos = 0
			Max xPos = 1.6			
			Min yPos = 0
			Max yPos = 1.6-->
   <g transform="translate(450 375) scale(100 -100)">
      <g style="fill:none;stroke:blue;stroke-width:0.04">
         <line id="line1" x1="0" y1=".9" x2=".25" y2="0"/>
         <line id="line2" x1=".25" y1="0" x2="1.3" y2=".5"/>
         <line id="line3" x1="1.3" y1=".5" x2="0" y2="1.6"/>
         <line id="line4" x1="0" y1="1.6" x2=".6" y2="0"/>
         <line id="line5" x1=".6" y1="0" x2="1.3" y2=".7"/>
         <line id="line6" x1="1.3" y1=".7" x2="0" y2="1.1"/>
         <line id="line7" x1="0" y1="1.1" x2=".8" y2="0"/>
         <line id="line8" x1=".8" y1="0" x2="1" y2=".9"/>
         <line id="line9" x1="1" y1=".9" x2="0" y2=".95"/>
         <line id="line10" x1="0" y1=".95" x2="1" y2="0"/>
         <line id="line11" x1="1" y1="0" x2=".7" y2="1"/>
      </g>
      <g style="fill:red;stroke:red;stroke-width:0.001">
         <circle id="marker1" cx="0" cy=".9" r="0.05"/>
         <set
              xlink:href="#markerText1"
              attributeType="CSS"
              attributeName="visibility"
              to="visible"
              begin="marker1.mouseover"
              end="marker1.mouseout"/>
         <circle id="marker2" cx=".25" cy="0" r="0.05"/>
         <set
              xlink:href="#markerText2"
              attributeType="CSS"
              attributeName="visibility"
              to="visible"
              begin="marker2.mouseover"
              end="marker2.mouseout"/>
         <circle id="marker3" cx="1.3" cy=".5" r="0.05"/>
         <set
              xlink:href="#markerText3"
              attributeType="CSS"
              attributeName="visibility"
              to="visible"
              begin="marker3.mouseover"
              end="marker3.mouseout"/>
         <circle id="marker4" cx="0" cy="1.6" r="0.05"/>
         <set
              xlink:href="#markerText4"
              attributeType="CSS"
              attributeName="visibility"
              to="visible"
              begin="marker4.mouseover"
              end="marker4.mouseout"/>
         <circle id="marker5" cx=".6" cy="0" r="0.05"/>
         <set
              xlink:href="#markerText5"
              attributeType="CSS"
              attributeName="visibility"
              to="visible"
              begin="marker5.mouseover"
              end="marker5.mouseout"/>
         <circle id="marker6" cx="1.3" cy=".7" r="0.05"/>
         <set
              xlink:href="#markerText6"
              attributeType="CSS"
              attributeName="visibility"
              to="visible"
              begin="marker6.mouseover"
              end="marker6.mouseout"/>
         <circle id="marker7" cx="0" cy="1.1" r="0.05"/>
         <set
              xlink:href="#markerText7"
              attributeType="CSS"
              attributeName="visibility"
              to="visible"
              begin="marker7.mouseover"
              end="marker7.mouseout"/>
         <circle id="marker8" cx=".8" cy="0" r="0.05"/>
         <set
              xlink:href="#markerText8"
              attributeType="CSS"
              attributeName="visibility"
              to="visible"
              begin="marker8.mouseover"
              end="marker8.mouseout"/>
         <circle id="marker9" cx="1" cy=".9" r="0.05"/>
         <set
              xlink:href="#markerText9"
              attributeType="CSS"
              attributeName="visibility"
              to="visible"
              begin="marker9.mouseover"
              end="marker9.mouseout"/>
         <circle id="marker10" cx="0" cy=".95" r="0.05"/>
         <set
              xlink:href="#markerText10"
              attributeType="CSS"
              attributeName="visibility"
              to="visible"
              begin="marker10.mouseover"
              end="marker10.mouseout"/>
         <circle id="marker11" cx="1" cy="0" r="0.05"/>
         <set
              xlink:href="#markerText11"
              attributeType="CSS"
              attributeName="visibility"
              to="visible"
              begin="marker11.mouseover"
              end="marker11.mouseout"/>
         <circle id="marker12" cx=".7" cy="1" r="0.05"/>
         <set
              xlink:href="#markerText12"
              attributeType="CSS"
              attributeName="visibility"
              to="visible"
              begin="marker12.mouseover"
              end="marker12.mouseout"/>
      </g>
   </g>
   <g id="markerTexts"
      transform="translate(450 375)"
      style="visibility:hidden;font-size:14;font-weight:bold; fill:green; stroke:none">
      <text id="markerText1" x="5" y="-95">(0,.9)</text>
      <text id="markerText2" x="30" y="-5">(.25,0)</text>
      <text id="markerText3" x="135" y="-55">(1.3,.5)</text>
      <text id="markerText4" x="5" y="-165">(0,1.6)</text>
      <text id="markerText5" x="65" y="-5">(.6,0)</text>
      <text id="markerText6" x="135" y="-75">(1.3,.7)</text>
      <text id="markerText7" x="5" y="-115.00000000000001">(0,1.1)</text>
      <text id="markerText8" x="85" y="-5">(.8,0)</text>
      <text id="markerText9" x="105" y="-95">(1,.9)</text>
      <text id="markerText10" x="5" y="-100">(0,.95)</text>
      <text id="markerText11" x="105" y="-5">(1,0)</text>
      <text id="markerText12" x="75" y="-105">(.7,1)</text>
   </g>
   <g transform="translate(450 375) scale(100 -100)"
      style="fill:none;stroke:rgb(0,0,0);stroke-width:0.03">
      <line x1="0" y1="0" x2="0" y2="1.7600000000000002"/>
      <line x1="0" y1="0" x2="1.7600000000000002" y2="0"/>
      <g style="fill:none;stroke:rgb(0,0,0);stroke-width:0.03">
         <line x1="0.2" y1="-0.03" x2="0.2" y2="0.03"/>
         <line x1="0.4" y1="-0.03" x2="0.4" y2="0.03"/>
         <line
               x1="0.6000000000000001"
               y1="-0.03"
               x2="0.6000000000000001"
               y2="0.03"/>
         <line x1="0.8" y1="-0.03" x2="0.8" y2="0.03"/>
         <line x1="1" y1="-0.03" x2="1" y2="0.03"/>
         <line x1="1.2" y1="-0.03" x2="1.2" y2="0.03"/>
         <line x1="1.4" y1="-0.03" x2="1.4" y2="0.03"/>
         <line
               x1="1.5999999999999999"
               y1="-0.03"
               x2="1.5999999999999999"
               y2="0.03"/>
         <line y1="0.2" x1="-0.03" y2="0.2" x2="0.03"/>
         <line y1="0.4" x1="-0.03" y2="0.4" x2="0.03"/>
         <line
               y1="0.6000000000000001"
               x1="-0.03"
               y2="0.6000000000000001"
               x2="0.03"/>
         <line y1="0.8" x1="-0.03" y2="0.8" x2="0.03"/>
         <line y1="1" x1="-0.03" y2="1" x2="0.03"/>
         <line y1="1.2" x1="-0.03" y2="1.2" x2="0.03"/>
         <line y1="1.4" x1="-0.03" y2="1.4" x2="0.03"/>
         <line
               y1="1.5999999999999999"
               x1="-0.03"
               y2="1.5999999999999999"
               x2="0.03"/>
      </g>
   </g>
</svg>
